<svg width="161" height="120" viewBox="0 0 161 120" fill="none" xmlns="http://www.w3.org/2000/svg">
<path d="M136.292 9.95235C126.029 5.35265 115.028 1.95287 103.523 0.0196665C103.421 0.000120538 103.315 0.0127167 103.22 0.055713C103.125 0.0987094 103.046 0.169979 102.993 0.259651C101.585 2.71949 100.015 5.92595 98.9147 8.45911C86.7133 6.64748 74.3086 6.64748 62.1072 8.45911C60.8818 5.6517 59.5 2.9143 57.9683 0.259651C57.9163 0.168875 57.8378 0.0959932 57.7431 0.050732C57.6484 0.00547074 57.5421 -0.0100181 57.4383 0.0063334C45.9406 1.93954 34.9392 5.33932 24.6691 9.94568C24.5807 9.98251 24.5058 10.0453 24.4544 10.1257C3.57866 40.6237 -2.14338 70.3684 0.66733 99.7398C0.675151 99.8117 0.697621 99.8813 0.733371 99.9444C0.769121 100.007 0.817405 100.063 0.875282 100.106C13.0599 108.922 26.6502 115.638 41.0772 119.972C41.1777 120.003 41.2853 120.002 41.3858 119.972C41.4863 119.941 41.5751 119.88 41.6406 119.798C44.7451 115.673 47.4962 111.295 49.8648 106.713C49.8977 106.65 49.9166 106.581 49.9204 106.51C49.9241 106.44 49.9126 106.369 49.8865 106.304C49.8604 106.238 49.8204 106.179 49.7692 106.129C49.718 106.08 49.6568 106.043 49.5898 106.019C45.2564 104.398 41.0576 102.441 37.0322 100.166C36.9598 100.125 36.8989 100.067 36.8548 99.9969C36.8107 99.9267 36.7848 99.8467 36.7795 99.7641C36.7742 99.6815 36.7896 99.5989 36.8243 99.5237C36.859 99.4485 36.912 99.383 36.9785 99.3331C37.8237 98.7132 38.6689 98.0666 39.4739 97.4199C39.5464 97.3618 39.6337 97.3248 39.726 97.313C39.8184 97.3012 39.9123 97.3152 39.9972 97.3533C66.34 109.113 94.8697 109.113 120.904 97.3533C120.989 97.3129 121.084 97.2971 121.178 97.3077C121.271 97.3184 121.36 97.3549 121.434 97.4133C122.239 98.0666 123.077 98.7132 123.929 99.3331C123.997 99.382 124.05 99.4466 124.086 99.5211C124.122 99.5957 124.139 99.678 124.135 99.7605C124.131 99.8431 124.106 99.9234 124.063 99.9942C124.021 100.065 123.961 100.124 123.889 100.166C119.878 102.46 115.705 104.399 111.325 106.013C111.258 106.037 111.196 106.075 111.145 106.125C111.094 106.175 111.054 106.235 111.028 106.301C111.002 106.367 110.99 106.438 110.994 106.509C110.998 106.58 111.017 106.65 111.05 106.713C113.465 111.292 116.228 115.652 119.267 119.792C119.33 119.877 119.418 119.94 119.519 119.974C119.62 120.007 119.729 120.009 119.831 119.978C134.282 115.656 147.895 108.938 160.093 100.106C160.152 100.065 160.202 100.012 160.239 99.9495C160.276 99.8874 160.3 99.8182 160.308 99.7464C163.662 65.7887 154.686 36.284 136.5 10.139C136.456 10.054 136.382 9.9878 136.292 9.95235ZM53.8025 81.8543C45.8735 81.8543 39.333 74.7281 39.333 65.9887C39.333 57.2426 45.746 50.123 53.8025 50.123C61.9194 50.123 68.3994 57.3026 68.272 65.9887C68.272 74.7348 61.859 81.8543 53.8025 81.8543ZM107.3 81.8543C99.3642 81.8543 92.8305 74.7281 92.8305 65.9887C92.8305 57.2426 99.2367 50.123 107.3 50.123C115.417 50.123 121.897 57.3026 121.769 65.9887C121.769 74.7348 115.423 81.8543 107.3 81.8543Z" fill="#7200D6"/>
</svg>
