<svg width="48" height="47" viewBox="0 0 48 47" fill="none" xmlns="http://www.w3.org/2000/svg">
<path fill-rule="evenodd" clip-rule="evenodd" d="M23.9266 0C10.7156 0 0 10.7849 0 24.0814C0 34.7186 6.89908 43.7306 16.2936 46.9809C17.4679 47.1286 17.9083 46.3899 17.9083 45.799C17.9083 45.208 17.9083 43.7306 17.9083 41.6623C11.3028 43.1397 9.83486 38.412 9.83486 38.412C8.80734 35.605 7.19266 34.8663 7.19266 34.8663C4.99083 33.3889 7.33945 33.3889 7.33945 33.3889C9.68807 33.5367 11.0092 35.9005 11.0092 35.9005C13.211 39.594 16.5872 38.5598 17.9083 37.9688C18.055 36.3437 18.789 35.3095 19.3761 34.7186C14.0917 34.1276 8.51376 32.0593 8.51376 22.7517C8.51376 20.0925 9.3945 18.0241 11.0092 16.2512C10.8624 15.808 9.98165 13.2965 11.3028 10.0462C11.3028 10.0462 13.3578 9.45527 17.9083 12.5578C19.8165 11.9668 21.8716 11.8191 23.9266 11.8191C25.9817 11.8191 28.0367 12.1146 29.945 12.5578C34.4954 9.45527 36.5505 10.0462 36.5505 10.0462C37.8716 13.2965 36.9908 15.808 36.844 16.399C38.3119 18.0241 39.3394 20.2402 39.3394 22.8995C39.3394 32.207 33.7615 34.1276 28.4771 34.7186C29.3578 35.4573 30.0917 36.9347 30.0917 39.1507C30.0917 42.401 30.0917 44.9125 30.0917 45.799C30.0917 46.3899 30.5321 47.1286 31.7064 46.9809C41.2477 43.7306 48 34.7186 48 24.0814C47.8532 10.7849 37.1376 0 23.9266 0Z" fill="black"/>
</svg>
