<svg width="272" height="266" viewBox="0 0 272 266" fill="none" xmlns="http://www.w3.org/2000/svg">
<path fill-rule="evenodd" clip-rule="evenodd" d="M135.5 0C60.684 0 0 60.8333 0 135.833C0 195.833 39.0706 246.667 92.273 265C98.9233 265.833 101.417 261.667 101.417 258.333C101.417 255 101.417 246.667 101.417 235C64.0092 243.333 55.6963 216.667 55.6963 216.667C49.8773 200.833 40.7331 196.667 40.7331 196.667C28.2638 188.333 41.5644 188.333 41.5644 188.333C54.865 189.167 62.3466 202.5 62.3466 202.5C74.816 223.333 93.9356 217.5 101.417 214.167C102.248 205 106.405 199.167 109.73 195.833C79.8037 192.5 48.2147 180.833 48.2147 128.333C48.2147 113.333 53.2025 101.667 62.3466 91.6667C61.5153 89.1667 56.5276 75 64.0092 56.6667C64.0092 56.6667 75.6472 53.3333 101.417 70.8333C112.224 67.5 123.862 66.6667 135.5 66.6667C147.138 66.6667 158.776 68.3333 169.583 70.8333C195.353 53.3333 206.991 56.6667 206.991 56.6667C214.472 75 209.485 89.1667 208.653 92.5C216.966 101.667 222.785 114.167 222.785 129.167C222.785 181.667 191.196 192.5 161.27 195.833C166.258 200 170.414 208.333 170.414 220.833C170.414 239.167 170.414 253.333 170.414 258.333C170.414 261.667 172.908 265.833 179.558 265C233.592 246.667 271.831 195.833 271.831 135.833C271 60.8333 210.316 0 135.5 0Z" fill="black"/>
</svg>
