<svg width="26" height="25" viewBox="0 0 26 25" fill="none" xmlns="http://www.w3.org/2000/svg">
<path d="M13.8036 10.1684C14.1471 9.80635 14.4282 9.41411 14.803 9.08222C15.896 8.08655 17.1765 7.57363 18.7068 7.6038C19.55 7.6038 20.362 7.66414 21.1428 7.90552C22.9854 8.41844 24.0473 9.62532 24.547 11.3753C24.9217 12.6727 24.9842 14.0002 25.0154 15.3278C25.0154 18.1338 25.0154 20.9398 25.0154 23.7759C25.0154 24.0475 24.953 24.1078 24.6719 24.1078C23.1728 24.1078 21.6737 24.1078 20.1747 24.1078C19.9248 24.1078 19.8623 24.0173 19.8623 23.7759C19.8623 21.0906 19.8623 18.4355 19.8623 15.7502C19.8623 15.0864 19.8311 14.4227 19.6125 13.7589C19.269 12.552 18.3633 11.9486 17.0516 12.0089C15.2714 12.0994 14.3345 12.9442 14.1159 14.6942C14.0534 15.1166 14.0222 15.539 14.0222 15.9614C14.0222 18.5562 14.0222 21.1812 14.0222 23.7759C14.0222 24.0475 13.9597 24.1078 13.6787 24.1078C12.1796 24.1078 10.6493 24.1078 9.1502 24.1078C8.90035 24.1078 8.83789 24.0475 8.83789 23.8061C8.83789 18.6467 8.83789 13.4873 8.83789 8.32792C8.83789 8.08655 8.93158 8.0262 9.18143 8.0262C10.618 8.0262 12.0547 8.0262 13.4913 8.0262C13.7411 8.0262 13.8348 8.11672 13.8036 8.3581C13.7723 8.93136 13.8036 9.5348 13.8036 10.1684Z" fill="#7200D6"/>
<path d="M5.59055 16.052C5.59055 18.6166 5.59055 21.1511 5.59055 23.7157C5.59055 23.9872 5.52809 24.0777 5.21579 24.0777C3.71671 24.0476 2.21763 24.0777 0.718558 24.0777C0.468711 24.0777 0.40625 24.0174 0.40625 23.776C0.40625 18.6166 0.40625 13.4572 0.40625 8.29781C0.40625 8.08661 0.468712 7.99609 0.687327 7.99609C2.21763 7.99609 3.71671 7.99609 5.24702 7.99609C5.52809 7.99609 5.59055 8.11678 5.59055 8.35816C5.55932 10.9228 5.59055 13.4874 5.59055 16.052Z" fill="#7200D6"/>
<path d="M5.9963 2.86633C5.9963 4.46545 4.65338 5.76284 2.99815 5.76284C1.37415 5.79301 0 4.46545 0 2.8965C0 1.29739 1.34292 0 2.99815 0C4.65338 0 5.9963 1.29739 5.9963 2.86633Z" fill="#7200D6"/>
</svg>
