<svg width="26" height="25" viewBox="0 0 26 25" fill="none" xmlns="http://www.w3.org/2000/svg">
<path d="M13.8041 10.5524C14.1476 10.1776 14.4287 9.77163 14.8035 9.42809C15.8965 8.39748 17.177 7.86656 18.7073 7.89779C19.5505 7.89779 20.3625 7.96025 21.1433 8.21009C22.9859 8.74102 24.0478 9.99025 24.5474 11.8016C24.9222 13.1446 24.9847 14.5187 25.0159 15.8929C25.0159 18.7973 25.0159 21.7018 25.0159 24.6375C25.0159 24.9185 24.9534 24.981 24.6724 24.981C23.1733 24.981 21.6742 24.981 20.1751 24.981C19.9253 24.981 19.8628 24.8873 19.8628 24.6375C19.8628 21.8579 19.8628 19.1096 19.8628 16.3301C19.8628 15.643 19.8316 14.9559 19.613 14.2689C19.2694 13.0196 18.3638 12.395 17.0521 12.4575C15.2719 12.5512 14.335 13.4256 14.1164 15.237C14.0539 15.6742 14.0227 16.1115 14.0227 16.5487C14.0227 19.2345 14.0227 21.9516 14.0227 24.6375C14.0227 24.9185 13.9602 24.981 13.6791 24.981C12.1801 24.981 10.6498 24.981 9.15069 24.981C8.90084 24.981 8.83838 24.9185 8.83838 24.6687C8.83838 19.3282 8.83838 13.9878 8.83838 8.64732C8.83838 8.39748 8.93207 8.33502 9.18192 8.33502C10.6185 8.33502 12.0551 8.33502 13.4918 8.33502C13.7416 8.33502 13.8353 8.42871 13.8041 8.67856C13.7728 9.27194 13.8041 9.89656 13.8041 10.5524Z" fill="#1D1D1D"/>
<path d="M5.59031 16.6423C5.59031 19.2969 5.59031 21.9203 5.59031 24.5749C5.59031 24.856 5.52785 24.9497 5.21554 24.9497C3.71647 24.9185 2.21739 24.9497 0.718313 24.9497C0.468467 24.9497 0.406006 24.8872 0.406006 24.6374C0.406006 19.2969 0.406006 13.9565 0.406006 8.61602C0.406006 8.3974 0.468467 8.30371 0.687083 8.30371C2.21739 8.30371 3.71646 8.30371 5.24677 8.30371C5.52785 8.30371 5.59031 8.42863 5.59031 8.67848C5.55908 11.3331 5.59031 13.9877 5.59031 16.6423Z" fill="#1D1D1D"/>
<path d="M5.9963 2.99427C5.9963 4.6495 4.65338 5.99242 2.99815 5.99242C1.37415 6.02365 0 4.6495 0 3.0255C0 1.37027 1.34292 0.0273438 2.99815 0.0273438C4.65338 0.0273438 5.9963 1.37027 5.9963 2.99427Z" fill="#1D1D1D"/>
</svg>
