<svg width="28" height="23" viewBox="0 0 28 23" fill="none" xmlns="http://www.w3.org/2000/svg">
<path d="M8.91658 22.3537C19.2227 22.3537 24.8443 14.1168 24.8443 6.96603C24.8443 6.72465 24.8443 6.51345 24.813 6.27207C25.9061 5.51777 26.843 4.55227 27.5926 3.46608C26.5932 3.88849 25.5001 4.19021 24.3758 4.3109C25.5626 3.64711 26.437 2.5911 26.8743 1.32388C25.7812 1.95749 24.5944 2.37989 23.314 2.65144C22.2833 1.59542 20.8155 0.931641 19.2227 0.931641C16.1309 0.931641 13.6324 3.34539 13.6324 6.33242C13.6324 6.75482 13.6949 7.17723 13.7886 7.56946C9.10397 7.35826 4.98151 5.18588 2.2332 1.92731C1.76474 2.71178 1.48366 3.64711 1.48366 4.64279C1.48366 6.51345 2.48305 8.1729 3.98212 9.1384C3.07643 9.10823 2.20197 8.86686 1.45243 8.47462C1.45243 8.50479 1.45243 8.50479 1.45243 8.53497C1.45243 11.1599 3.38874 13.3323 5.94966 13.8452C5.4812 13.9659 4.98151 14.0263 4.48181 14.0263C4.10705 14.0263 3.76351 13.9961 3.41997 13.9357C4.13828 16.0779 6.19951 17.6469 8.6355 17.6771C6.73043 19.1253 4.29443 20.0003 1.67105 20.0003C1.23382 20.0003 0.765355 19.9701 0.328125 19.94C2.79535 21.4485 5.76228 22.3537 8.91658 22.3537Z" fill="#7200D6"/>
</svg>
