<svg width="143" height="116" viewBox="0 0 143 116" fill="none" xmlns="http://www.w3.org/2000/svg">
<path d="M143 13.7597C137.741 16.0849 132.092 17.656 126.153 18.3662C132.281 14.7074 136.865 8.94883 139.051 2.16508C133.294 5.57742 126.993 7.97933 120.422 9.2664C116.003 4.55857 110.151 1.43814 103.772 0.389582C97.3944 -0.658976 90.8477 0.422999 85.149 3.46753C79.4503 6.51206 74.9184 11.3488 72.2567 17.2268C69.5951 23.1048 68.9527 29.6953 70.4294 35.9749C58.7637 35.3905 47.3515 32.3649 36.9335 27.0945C26.5155 21.8242 17.3245 14.4269 9.95697 5.38267C7.43781 9.71888 5.9893 14.7464 5.9893 20.1006C5.98649 24.9207 7.17603 29.667 9.45238 33.9183C11.7287 38.1696 15.0215 41.7945 19.0385 44.4714C14.3798 44.3235 9.82392 43.0674 5.74998 40.8076V41.1847C5.74951 47.945 8.093 54.4973 12.3828 59.7298C16.6726 64.9622 22.6445 68.5526 29.2852 69.8916C24.9635 71.0587 20.4325 71.2306 16.0344 70.3944C17.908 76.2112 21.5577 81.2979 26.4724 84.9422C31.3871 88.5865 37.3208 90.606 43.4429 90.718C33.0503 98.8588 20.2155 103.275 7.00326 103.255C4.66284 103.256 2.3244 103.12 0 102.847C13.4112 111.451 29.0228 116.018 44.967 116C98.9399 116 128.446 71.3936 128.446 32.7071C128.446 31.4502 128.414 30.1807 128.357 28.9239C134.097 24.7823 139.051 19.6538 142.987 13.7786L143 13.7597Z" fill="#7200D6"/>
</svg>
