<svg width="28" height="23" viewBox="0 0 28 23" fill="none" xmlns="http://www.w3.org/2000/svg">
<path d="M8.82016 22.772C19.4044 22.772 25.1775 14.016 25.1775 6.41466C25.1775 6.15807 25.1775 5.93356 25.1455 5.67698C26.268 4.87514 27.2302 3.8488 28 2.69416C26.9737 3.14318 25.8511 3.46392 24.6964 3.59221C25.9152 2.8866 26.8133 1.76403 27.2623 0.416953C26.1397 1.09049 24.921 1.53952 23.606 1.82818C22.5475 0.705613 21.0401 0 19.4044 0C16.2291 0 13.6632 2.56586 13.6632 5.74112C13.6632 6.19015 13.7274 6.63917 13.8236 7.05613C9.0126 6.83161 4.77892 4.52234 1.95647 1.05842C1.47537 1.89233 1.18671 2.8866 1.18671 3.94502C1.18671 5.93356 2.21306 7.69759 3.75258 8.72394C2.82245 8.69187 1.9244 8.43528 1.15464 8.01833C1.15464 8.0504 1.15464 8.0504 1.15464 8.08247C1.15464 10.8729 3.14318 13.1821 5.7732 13.7274C5.2921 13.8557 4.77892 13.9198 4.26575 13.9198C3.88087 13.9198 3.52806 13.8877 3.17526 13.8236C3.91294 16.1008 6.02978 17.7686 8.5315 17.8007C6.57503 19.3402 4.07331 20.2703 1.37915 20.2703C0.930126 20.2703 0.449026 20.2383 0 20.2062C2.53379 21.8098 5.58076 22.772 8.82016 22.772Z" fill="black"/>
</svg>
