<?xml version="1.0" encoding="UTF-8"?><svg id="Layer_13" xmlns="http://www.w3.org/2000/svg" viewBox="0 0 95.56 100.46"><path d="M75.11,35.31l-11.11-4.33-1.98-11.49,8.57-8.12c.73-.69,.34-1.91-.66-2.07-1.1-.19-2.24-.29-3.39-.29-11.41,0-20.67,9.25-20.67,20.67,0,2.68,.53,5.23,1.45,7.58l-19.12,19.12,12.41,12.41,19.48-19.48c2.59,.85,5.41,1.22,8.34,.95,8.38-.78,15.42-6.79,17.9-14.84,.89-2.89,1.04-5.68,.7-8.31-.11-.87-1.13-1.27-1.79-.69l-10.14,8.9Z"/><rect x="19.08" y="49.47" width="17.64" height="39.26" rx="2.3" ry="2.3" transform="translate(57.03 .51) rotate(45)"/></svg>